# xmcd
#
# Track frame offsets: 
#        150
#        14277
#        29633
#        44977
#        56129
#        71307
#        84928
#        104493
#        124434
#        137068
#
# Disc length: 1989 seconds
#
# Revision: 1
# Processed by: cddbd v1.5.2PL0 Copyright (c) Steve Scherf et al.
# Submitted via: ExactAudioCopyFreeDBPlugin 1.0
#
DISCID=9307c30a
DTITLE=Dionne Warwick - 1967 - The Windows of The World
DYEAR=1967
DGENRE=Blues
TTITLE0=I Say A Little Prayer
TTITLE1=Walk Little Dolly
TTITLE2=The Beginning Of Loneliness
TTITLE3=Another Night
TTITLE4=The Windows of The World
TTITLE5=(There's) Always Something There To Remind Me
TTITLE6=Somewhere
TTITLE7=You're Gonna Hear From Me
TTITLE8=Love
TTITLE9=What's Good About Goodbye
EXTD=
EXTT0=
EXTT1=
EXTT2=
EXTT3=
EXTT4=
EXTT5=
EXTT6=
EXTT7=
EXTT8=
EXTT9=
PLAYORDER=
